<?xml version="1.0" encoding="utf-8"?>
<!-- Generator: Adobe Illustrator 16.0.0, SVG Export Plug-In . SVG Version: 6.00 Build 0)  -->
<!DOCTYPE svg PUBLIC "-//W3C//DTD SVG 1.1//EN" "http://www.w3.org/Graphics/SVG/1.1/DTD/svg11.dtd">
<svg version="1.1" id="Layer_1" xmlns="http://www.w3.org/2000/svg" xmlns:xlink="http://www.w3.org/1999/xlink" x="0px" y="0px"
	 width="203.678px" height="92.271px" viewBox="0 0 203.678 92.271" enable-background="new 0 0 203.678 92.271"
	 xml:space="preserve">
<rect fill="#BCE4FA" width="203.678" height="92.271"/>
<g>
	<path fill="#E30613" d="M169.57,18.42c1.273,0,2.393,0.476,3.321,1.424c0.93,0.943,1.402,2.093,1.402,3.394
		c0,1.333-0.465,2.467-1.392,3.41c-0.93,0.948-2.059,1.421-3.332,1.421c-1.304,0-2.425-0.473-3.333-1.421
		c-0.927-0.943-1.393-2.077-1.393-3.41c0-1.301,0.466-2.44,1.379-3.381C167.146,18.906,168.267,18.42,169.57,18.42 M185.258,37.533
		v-2.932c0-2.769-2.247-5.024-5.02-5.024h-21.341c-2.775,0-5.02,2.255-5.02,5.024v11.036h23.806v1.675h-23.806v2.929
		c0,2.771,2.244,5.021,5.02,5.021h21.341c2.772,0,5.02-2.25,5.02-5.021V39.205h-23.802v-1.672H185.258z"/>
	<path fill="#00497B" d="M34.432,46.333c-0.401-2.408-0.561-5.779-0.561-8.588v-8.026h5.819v23.757c0,1.163-0.562,2.006-2.087,2.006
		h-3.532c-1.164,0-1.605-0.12-2.127-1.123l-8.066-15.571h-0.161c0.402,3.051,0.522,6.341,0.522,8.589v8.024H18.42V31.846
		c0-1.364,0.723-2.207,2.248-2.207h3.411c1.123,0,1.605,0.12,2.127,1.123l8.026,15.571H34.432z M55.827,29.639
		c1.083,0,1.605,0.12,1.846,1.043l5.979,23.717c0.08,0.361,0.121,0.724,0.121,1.003h-5.258c-1.083,0-1.404-0.079-1.605-0.963
		l-1.244-5.137h-5.979l-1.164,5.137c-0.201,0.884-0.522,0.963-1.605,0.963h-5.217c0-0.279,0.04-0.602,0.12-1.003L47.8,30.682
		c0.241-0.923,0.763-1.043,1.847-1.043H55.827z M50.65,44.487h3.973l-1.927-8.227h-0.16L50.65,44.487z M65.783,32.007
		c0-1.525,0.683-2.288,2.208-2.288h8.146c6.903,0,10.916,3.692,10.916,12.842c0,9.15-4.013,12.841-10.916,12.841h-8.146
		c-1.525,0-2.208-0.763-2.208-2.286V32.007z M72.204,35.136v14.849h3.733c2.769,0,4.494-1.524,4.494-7.424
		c0-5.9-1.725-7.425-4.494-7.425H72.204z M101.985,29.639c1.084,0,1.605,0.12,1.846,1.043l5.979,23.717
		c0.081,0.361,0.121,0.724,0.121,1.003h-5.258c-1.083,0-1.404-0.079-1.604-0.963l-1.244-5.137h-5.98l-1.163,5.137
		c-0.201,0.884-0.522,0.963-1.606,0.963h-5.217c0-0.279,0.04-0.602,0.121-1.003l5.979-23.717c0.241-0.923,0.763-1.043,1.846-1.043
		H101.985z M96.809,44.487h3.972l-1.926-8.227h-0.161L96.809,44.487z M121.694,29.518c5.337,0,7.103,0.964,7.103,3.171v2.447h-7.103
		c-3.492,0-4.335,1.525-4.335,7.425c0,5.899,0.843,7.424,4.335,7.424h7.103v2.447c0,2.207-1.766,3.171-7.103,3.171
		c-7.104,0-10.956-3.892-10.956-13.042C110.738,33.411,114.591,29.518,121.694,29.518 M130.808,32.007
		c0-1.525,0.683-2.288,2.207-2.288h14.046v3.17c0,1.525-0.763,2.247-2.286,2.247h-7.546v4.616h8.428v5.216h-8.428v5.017h10.032v3.17
		c0,1.525-0.762,2.247-2.287,2.247h-11.959c-1.524,0-2.207-0.763-2.207-2.286V32.007z M23.534,60.909c2.367,0,3.03,0.221,3.03,1.103
		v0.603h-3.03c-2.208,0-3.091,1.124-3.091,4.814c0,3.693,0.883,4.817,3.091,4.817h3.03v0.601c0,0.883-0.663,1.104-3.03,1.104
		c-3.411,0-5.057-2.026-5.057-6.522C18.477,62.935,20.123,60.909,23.534,60.909 M23.092,60.146c-0.241,0-0.361-0.06-0.602-0.342
		l-1.605-1.906c-0.08-0.099-0.08-0.221-0.08-0.301h0.803c0.26,0,0.38,0.04,0.642,0.301l1.083,1.004l1.104-1.004
		c0.26-0.261,0.381-0.301,0.642-0.301h0.802c0,0.08,0,0.202-0.08,0.301l-1.605,1.906c-0.241,0.282-0.361,0.342-0.602,0.342H23.092z
		 M34.587,72.525v0.463c0,0.781-1.063,0.963-3.27,0.963c-3.13,0-4.093-2.309-4.093-5.116c0-2.811,1.023-5.118,4.073-5.118
		c2.468,0,3.752,1.526,3.752,3.733c0,0.461,0,0.883-0.1,1.846H29.11c0,2.328,0.782,3.229,2.408,3.229H34.587z M33.203,68.051
		c0.02-0.18,0.02-0.582,0.02-0.822c0-0.963-0.381-2.167-1.906-2.167c-1.384,0-2.127,0.883-2.207,2.989H33.203z M39.882,63.717
		c1.767,0,2.97,0.041,2.97,0.923v0.522h-3.03c-0.902,0-1.485,0.4-1.485,1.044c0,2.087,5.057,1.483,5.057,4.854
		c0,1.646-1.083,2.891-3.913,2.891c-1.645,0-3.17,0-3.17-0.863v-0.562h3.371c1.204,0,1.766-0.421,1.766-1.323
		c0-1.906-5.037-1.525-5.037-4.896C36.411,64.701,37.715,63.717,39.882,63.717 M46.803,68.231l3.712-4.013
		c0.241-0.281,0.382-0.401,0.762-0.401h1.546c0,0.142-0.061,0.28-0.161,0.401l-4.053,4.274l4.073,4.956
		c0.12,0.12,0.141,0.261,0.141,0.4h-1.646c-0.461,0-0.602-0.2-0.882-0.561l-3.492-4.275v4.836h-1.806v-12.3
		c0-0.601,0.221-0.943,0.823-0.943h0.983V68.231z M60.385,72.525v0.463c0,0.781-1.063,0.963-3.27,0.963
		c-3.131,0-4.093-2.309-4.093-5.116c0-2.811,1.023-5.118,4.073-5.118c2.468,0,3.752,1.526,3.752,3.733c0,0.461,0,0.883-0.1,1.846
		h-5.839c0,2.328,0.782,3.229,2.408,3.229H60.385z M59.001,68.051c0.02-0.18,0.02-0.582,0.02-0.822c0-0.963-0.381-2.167-1.906-2.167
		c-1.384,0-2.127,0.883-2.207,2.989H59.001z M57.717,62.653c-0.261,0.281-0.381,0.302-0.642,0.302h-0.803c0-0.08,0-0.2,0.08-0.302
		l1.606-1.905c0.24-0.262,0.361-0.341,0.602-0.341h0.802c0.141,0,0.241,0.04,0.241,0.159c0,0.08-0.04,0.161-0.201,0.343
		L57.717,62.653z M70.033,63.717c1.766,0,2.97,0.041,2.97,0.923v0.522h-3.03c-0.903,0-1.485,0.4-1.485,1.044
		c0,2.087,5.057,1.483,5.057,4.854c0,1.646-1.083,2.891-3.913,2.891c-1.645,0-3.17,0-3.17-0.863v-0.562h3.371
		c1.204,0,1.766-0.421,1.766-1.323c0-1.906-5.037-1.525-5.037-4.896C66.562,64.701,67.866,63.717,70.033,63.717 M76.954,76.859
		h-1.805V63.817h0.902c0.642,0,0.903,0.342,0.903,0.844v0.32c0.562-0.663,1.465-1.265,2.609-1.265c2.368,0,3.471,1.947,3.471,5.118
		c0,3.17-1.103,5.116-3.471,5.116c-1.144,0-2.047-0.603-2.609-1.265V76.859z M78.961,65.162c-0.783,0-1.485,0.36-2.007,0.843v5.619
		c0.522,0.48,1.224,0.843,2.007,0.843c1.565,0,2.207-1.285,2.207-3.632C81.168,66.486,80.526,65.162,78.961,65.162 M84.517,68.835
		c0-2.811,0.923-5.118,4.073-5.118c3.17,0,4.073,2.308,4.073,5.118c0,2.808-0.903,5.116-4.073,5.116
		C85.44,73.951,84.517,71.643,84.517,68.835 M90.797,68.835c0-2.469-0.481-3.773-2.207-3.773c-1.706,0-2.207,1.305-2.207,3.773
		c0,2.467,0.501,3.771,2.207,3.771C90.316,72.605,90.797,71.302,90.797,68.835 M96.533,62.955c-0.24,0-0.361-0.061-0.602-0.341
		l-1.605-1.906c-0.08-0.102-0.08-0.222-0.08-0.301h0.802c0.261,0,0.382,0.04,0.643,0.301l1.083,1.003l1.104-1.003
		c0.261-0.261,0.381-0.301,0.642-0.301h0.802c0,0.079,0,0.199-0.08,0.301l-1.605,1.906c-0.241,0.28-0.361,0.341-0.602,0.341H96.533z
		 M94.567,73.85V63.817h0.903c0.602,0,0.863,0.482,0.903,1.244c0.782-1.044,1.826-1.345,2.589-1.345c0.34,0,0.702,0.081,0.702,0.502
		v1.285h-0.502c-1.465,0-2.207,0.361-2.789,0.842v7.504H94.567z M102.512,62.693h-1.806V61.55c0-0.601,0.221-0.943,0.823-0.943
		h0.982V62.693z M100.706,63.817h0.963c0.622,0,0.843,0.342,0.843,0.943v9.089h-1.806V63.817z M107.166,63.817h2.167v1.345h-2.167
		v6.12c0,0.862,0.101,1.185,0.742,1.185h1.425v0.46c0,0.783-0.723,0.963-1.725,0.963c-2.048,0-2.248-1.123-2.248-2.607v-6.12h-1.265
		v-1.003l1.265-0.342l0.642-1.604c0.201-0.421,0.342-0.603,0.703-0.603h0.461V63.817z M117.458,72.525v0.463
		c0,0.781-1.063,0.963-3.271,0.963c-3.13,0-4.093-2.309-4.093-5.116c0-2.811,1.023-5.118,4.073-5.118
		c2.468,0,3.752,1.526,3.752,3.733c0,0.461,0,0.883-0.101,1.846h-5.839c0,2.328,0.782,3.229,2.408,3.229H117.458z M116.074,68.051
		c0.02-0.18,0.02-0.582,0.02-0.822c0-0.963-0.381-2.167-1.906-2.167c-1.385,0-2.127,0.883-2.207,2.989H116.074z M121.569,73.85
		h-1.806v-12.3c0-0.601,0.221-0.943,0.822-0.943h0.983V73.85z M123.977,73.85V63.817h0.902c0.643,0,0.903,0.342,0.903,0.822v0.342
		c0.823-0.924,1.867-1.265,2.81-1.265c1.946,0,2.909,1.205,2.909,3.071v7.062h-1.786v-6.981c0-1.185-0.682-1.687-1.826-1.687
		c-0.762,0-1.545,0.362-2.106,0.843v7.825H123.977z M139.545,72.445c-0.823,0.924-1.847,1.265-2.789,1.265
		c-1.946,0-2.95-1.203-2.95-3.05v-6.843h1.806v6.763c0,1.164,0.704,1.666,1.847,1.666c0.742,0,1.525-0.362,2.087-0.863v-7.565h1.785
		v9.01c0,2.367-0.963,4.134-4.133,4.134c-2.207,0-3.11-0.182-3.11-0.963v-0.462h2.869c1.625,0,2.589-0.522,2.589-2.789V72.445z"/>
</g>
</svg>
