<?xml version="1.0" encoding="utf-8"?>
<!-- Generator: Adobe Illustrator 26.0.1, SVG Export Plug-In . SVG Version: 6.00 Build 0)  -->
<svg version="1.1" id="Layer_1" xmlns="http://www.w3.org/2000/svg" xmlns:xlink="http://www.w3.org/1999/xlink" x="0px" y="0px"
	 viewBox="0 0 113.4 113.4" style="enable-background:new 0 0 113.4 113.4;" xml:space="preserve">
<style type="text/css">
	.st0{fill:none;stroke:#28348A;stroke-width:1.9706;stroke-linecap:round;stroke-linejoin:round;stroke-miterlimit:10;}
</style>
<g>
	<g>
		<line class="st0" x1="26.8" y1="46.8" x2="41.4" y2="86.1"/>
		<line class="st0" x1="30.5" y1="45.8" x2="41.4" y2="86.1"/>
		<line class="st0" x1="26.8" y1="46.8" x2="30.5" y2="45.8"/>
		<path class="st0" d="M26.8,46.8c-5.9-5.4-2.2-17.3-2.2-17.3s6.8,11.5,5.8,16.3"/>
		<line class="st0" x1="29.9" y1="55.2" x2="32.8" y2="54.5"/>
	</g>
	<g>
		<path class="st0" d="M53.3,50.8c-6.3-2.4-9.4-9.4-7-15.7c2.4-6.3,9.4-9.4,15.7-7c6.3,2.4,9.4,9.4,7,15.7
			C66.6,50.1,59.6,53.2,53.3,50.8z"/>
		<path class="st0" d="M68.6,35.9c-5.2,2.3-7.5,8.4-5.2,13.6"/>
		<path class="st0" d="M47,43.2c5.2-2.3,7.5-8.4,5.2-13.6"/>
	</g>
	<g>
		<path class="st0" d="M81.8,75.8c0.5,2.2-2,4.6-5.6,5.6c-3.6,0.9-7-0.1-7.6-2.3c-0.5-2.2,2-4.6,5.6-5.6
			C77.9,72.6,81.3,73.6,81.8,75.8z"/>
		<line class="st0" x1="82" y1="75.9" x2="82" y2="48.2"/>
		<path class="st0" d="M87.9,64.8c5.5-9-1.5-10.1-5.9-17.4"/>
	</g>
</g>
</svg>
