<?xml version="1.0" encoding="utf-8"?>
<!-- Generator: Adobe Illustrator 26.0.1, SVG Export Plug-In . SVG Version: 6.00 Build 0)  -->
<svg version="1.1" id="Layer_1" xmlns="http://www.w3.org/2000/svg" xmlns:xlink="http://www.w3.org/1999/xlink" x="0px" y="0px"
	 viewBox="0 0 113.4 113.4" style="enable-background:new 0 0 113.4 113.4;" xml:space="preserve">
<style type="text/css">
	.st0{fill:none;stroke:#28348A;stroke-width:1.9706;stroke-linecap:round;stroke-linejoin:round;stroke-miterlimit:10;}
	.st1{fill:#28348A;}
</style>
<g>
	<g>
		<path class="st0" d="M53.2,55.6c0,5.6-4.6,10.2-10.2,10.2c-5.6,0-10.2-4.6-10.2-10.2c0-5.6,4.6-10.2,10.2-10.2
			C48.6,45.4,53.2,50,53.2,55.6z"/>
		<path class="st0" d="M80.6,55.6c0,5.6-4.6,10.2-10.2,10.2c-5.6,0-10.2-4.6-10.2-10.2c0-5.6,4.6-10.2,10.2-10.2
			C76,45.4,80.6,50,80.6,55.6z"/>
	</g>
	<path class="st0" d="M48.6,49c0,0,8.5-4.9,16.3,0"/>
	<g>
		<path class="st0" d="M45.4,85.9c0,0,9.1,5.4,22.7,0"/>
	</g>
	<path class="st0" d="M43,25.1c4.9,10.3,29.6,1.7,37.1,10.1"/>
	<path class="st1" d="M44,55.6c0,0.6-0.5,1-1,1c-0.6,0-1-0.5-1-1s0.5-1,1-1C43.6,54.6,44,55.1,44,55.6z"/>
	<path class="st1" d="M71.4,55.6c0,0.6-0.5,1-1,1c-0.6,0-1-0.5-1-1s0.5-1,1-1C71,54.6,71.4,55.1,71.4,55.6z"/>
	<path class="st0" d="M39.1,53.5c0,0,3.5-2.3,8.2,0"/>
	<path class="st0" d="M66.3,53.5c0,0,3.5-2.3,8.2,0"/>
	<path class="st0" d="M62.3,69.5c-5.1,4.1-9-2.1-11.2,0"/>
</g>
</svg>
