<?xml version="1.0" encoding="utf-8"?>
<!-- Generator: Adobe Illustrator 26.0.1, SVG Export Plug-In . SVG Version: 6.00 Build 0)  -->
<svg version="1.1" id="Layer_1" xmlns="http://www.w3.org/2000/svg" xmlns:xlink="http://www.w3.org/1999/xlink" x="0px" y="0px"
	 viewBox="0 0 113.4 113.4" style="enable-background:new 0 0 113.4 113.4;" xml:space="preserve">
<style type="text/css">
	.st0{fill:#28348A;}
</style>
<g>
	<g>
		<path class="st0" d="M58.9,31.8c0,1.2-1,2.2-2.2,2.2c-1.2,0-2.2-1-2.2-2.2c0-1.2,1-2.2,2.2-2.2C57.9,29.6,58.9,30.6,58.9,31.8z"/>
		<ellipse class="st0" cx="56.7" cy="81.6" rx="2.2" ry="2.2"/>
	</g>
	<g>
		<circle class="st0" cx="81.6" cy="56.7" r="2.2"/>
		<path class="st0" d="M31.8,58.9c-1.2,0-2.2-1-2.2-2.2c0-1.2,1-2.2,2.2-2.2c1.2,0,2.2,1,2.2,2.2C34,57.9,33,58.9,31.8,58.9z"/>
	</g>
	<g>
		<path class="st0" d="M80.5,49.2c-1.1,0.5-2.4-0.1-2.9-1.2c-0.5-1.1,0.1-2.4,1.2-2.9c1.1-0.5,2.4,0.1,2.9,1.2
			C82.2,47.4,81.7,48.7,80.5,49.2z"/>
		<path class="st0" d="M34.5,68.3c-1.1,0.5-2.4-0.1-2.9-1.2c-0.5-1.1,0.1-2.4,1.2-2.9c1.1-0.5,2.4,0.1,2.9,1.2
			C36.2,66.5,35.7,67.8,34.5,68.3z"/>
	</g>
	<g>
		<path class="st0" d="M75.9,40.6c-0.9,0.9-2.3,0.9-3.1,0c-0.9-0.9-0.9-2.3,0-3.1c0.9-0.9,2.3-0.9,3.1,0
			C76.7,38.4,76.7,39.8,75.9,40.6z"/>
		<path class="st0" d="M40.7,75.9c-0.9,0.9-2.3,0.9-3.1,0c-0.9-0.9-0.9-2.3,0-3.1c0.9-0.9,2.3-0.9,3.1,0
			C41.5,73.6,41.5,75,40.7,75.9z"/>
	</g>
	<g>
		<path class="st0" d="M68.3,34.5c-0.5,1.1-1.8,1.7-2.9,1.2c-1.1-0.5-1.7-1.8-1.2-2.9c0.5-1.1,1.8-1.7,2.9-1.2
			C68.2,32.1,68.7,33.4,68.3,34.5z"/>
		<path class="st0" d="M49.2,80.5c-0.5,1.1-1.8,1.7-2.9,1.2c-1.1-0.5-1.7-1.8-1.2-2.9c0.5-1.1,1.8-1.7,2.9-1.2
			C49.1,78.1,49.7,79.4,49.2,80.5z"/>
	</g>
	<g>
		<path class="st0" d="M49.2,32.8c0.5,1.1-0.1,2.4-1.2,2.9c-1.1,0.5-2.4-0.1-2.9-1.2c-0.5-1.1,0.1-2.4,1.2-2.9
			C47.4,31.2,48.7,31.7,49.2,32.8z"/>
		<path class="st0" d="M68.3,78.8c0.5,1.1-0.1,2.4-1.2,2.9c-1.1,0.5-2.4-0.1-2.9-1.2c-0.5-1.1,0.1-2.4,1.2-2.9
			C66.5,77.2,67.8,77.7,68.3,78.8z"/>
	</g>
	<g>
		<path class="st0" d="M40.7,37.5c0.9,0.9,0.9,2.3,0,3.1c-0.9,0.9-2.3,0.9-3.1,0c-0.9-0.9-0.9-2.3,0-3.1
			C38.4,36.7,39.8,36.7,40.7,37.5z"/>
		<path class="st0" d="M75.9,72.7c0.9,0.9,0.9,2.3,0,3.1c-0.9,0.9-2.3,0.9-3.1,0c-0.9-0.9-0.9-2.3,0-3.1
			C73.6,71.9,75,71.9,75.9,72.7z"/>
	</g>
	<g>
		<path class="st0" d="M34.5,45.1c1.1,0.5,1.7,1.8,1.2,2.9c-0.5,1.1-1.8,1.7-2.9,1.2c-1.1-0.5-1.7-1.8-1.2-2.9
			C32.1,45.2,33.4,44.7,34.5,45.1z"/>
		<path class="st0" d="M80.5,64.2c1.1,0.5,1.7,1.8,1.2,2.9c-0.5,1.1-1.8,1.7-2.9,1.2c-1.1-0.5-1.7-1.8-1.2-2.9
			C78.1,64.2,79.4,63.7,80.5,64.2z"/>
	</g>
</g>
</svg>
