<?xml version="1.0" encoding="utf-8"?>
<!-- Generator: Adobe Illustrator 26.0.1, SVG Export Plug-In . SVG Version: 6.00 Build 0)  -->
<svg version="1.1" id="Layer_1" xmlns="http://www.w3.org/2000/svg" xmlns:xlink="http://www.w3.org/1999/xlink" x="0px" y="0px"
	 viewBox="0 0 113.4 113.4" style="enable-background:new 0 0 113.4 113.4;" xml:space="preserve">
<style type="text/css">
	.st0{fill:none;stroke:#28348A;stroke-width:1.9706;stroke-linecap:round;stroke-linejoin:round;stroke-miterlimit:10;}
</style>
<g>
	<circle class="st0" cx="56.7" cy="56.7" r="16.8"/>
	<g>
		<g>
			<line class="st0" x1="56.7" y1="39.9" x2="56.7" y2="31.3"/>
			<line class="st0" x1="54.8" y1="31.3" x2="58.6" y2="31.3"/>
		</g>
		<g>
			<line class="st0" x1="56.7" y1="73.5" x2="56.7" y2="82.1"/>
			<line class="st0" x1="58.6" y1="82.1" x2="54.8" y2="82.1"/>
		</g>
	</g>
	<g>
		<g>
			<line class="st0" x1="73.5" y1="56.7" x2="82.1" y2="56.7"/>
			<line class="st0" x1="82.1" y1="54.8" x2="82.1" y2="58.6"/>
		</g>
		<g>
			<line class="st0" x1="39.9" y1="56.7" x2="31.3" y2="56.7"/>
			<line class="st0" x1="31.3" y1="58.6" x2="31.3" y2="54.8"/>
		</g>
	</g>
	<g>
		<g>
			<line class="st0" x1="50.3" y1="41.2" x2="47" y2="33.3"/>
			<line class="st0" x1="45.2" y1="34" x2="48.8" y2="32.5"/>
		</g>
		<g>
			<line class="st0" x1="63.1" y1="72.2" x2="66.4" y2="80.1"/>
			<line class="st0" x1="68.2" y1="79.4" x2="64.6" y2="80.9"/>
		</g>
	</g>
	<g>
		<g>
			<line class="st0" x1="72.2" y1="50.3" x2="80.1" y2="47"/>
			<line class="st0" x1="79.4" y1="45.2" x2="80.9" y2="48.8"/>
		</g>
		<g>
			<line class="st0" x1="41.2" y1="63.1" x2="33.3" y2="66.4"/>
			<line class="st0" x1="34" y1="68.2" x2="32.5" y2="64.6"/>
		</g>
	</g>
	<g>
		<g>
			<line class="st0" x1="68.6" y1="44.8" x2="74.6" y2="38.7"/>
			<line class="st0" x1="73.3" y1="37.4" x2="76" y2="40.1"/>
		</g>
		<g>
			<line class="st0" x1="44.8" y1="68.6" x2="38.8" y2="74.6"/>
			<line class="st0" x1="40.1" y1="76" x2="37.4" y2="73.3"/>
		</g>
	</g>
	<g>
		<g>
			<line class="st0" x1="68.6" y1="68.6" x2="74.6" y2="74.6"/>
			<line class="st0" x1="76" y1="73.3" x2="73.3" y2="76"/>
		</g>
		<g>
			<line class="st0" x1="44.8" y1="44.8" x2="38.8" y2="38.8"/>
			<line class="st0" x1="37.4" y1="40.1" x2="40.1" y2="37.4"/>
		</g>
	</g>
	<g>
		<g>
			<line class="st0" x1="63.1" y1="41.2" x2="66.4" y2="33.3"/>
			<line class="st0" x1="64.6" y1="32.5" x2="68.2" y2="34"/>
		</g>
		<g>
			<line class="st0" x1="50.3" y1="72.2" x2="47" y2="80.1"/>
			<line class="st0" x1="48.8" y1="80.9" x2="45.2" y2="79.4"/>
		</g>
	</g>
	<g>
		<g>
			<line class="st0" x1="72.2" y1="63.1" x2="80.1" y2="66.4"/>
			<line class="st0" x1="80.9" y1="64.6" x2="79.4" y2="68.2"/>
		</g>
		<g>
			<line class="st0" x1="41.2" y1="50.3" x2="33.3" y2="47"/>
			<line class="st0" x1="32.5" y1="48.8" x2="34" y2="45.2"/>
		</g>
	</g>
</g>
</svg>
