<?xml version="1.0" encoding="utf-8"?>
<!-- Generator: Adobe Illustrator 26.0.1, SVG Export Plug-In . SVG Version: 6.00 Build 0)  -->
<svg version="1.1" id="Layer_1" xmlns="http://www.w3.org/2000/svg" xmlns:xlink="http://www.w3.org/1999/xlink" x="0px" y="0px"
	 viewBox="0 0 113.4 113.4" style="enable-background:new 0 0 113.4 113.4;" xml:space="preserve">
<style type="text/css">
	.st0{fill:none;stroke:#28348A;stroke-width:1.9706;stroke-linecap:round;stroke-linejoin:round;stroke-miterlimit:10;}
</style>
<g>
	<g>
		<path class="st0" d="M11.1,85.5c6.1,9.8,16,9.8,22.2,0"/>
		<line class="st0" x1="11.1" y1="84.8" x2="22.2" y2="41.7"/>
		<line class="st0" x1="33.3" y1="84.8" x2="22.2" y2="41.7"/>
		<path class="st0" d="M33.3,84.8c0,2.4-5,4.3-11.1,4.3s-11.1-1.9-11.1-4.3c0-2.4,5-4.3,11.1-4.3S33.3,82.5,33.3,84.8z"/>
	</g>
	<g>
		<path class="st0" d="M80.1,64.3c6.1,9.8,16,9.8,22.2,0"/>
		<line class="st0" x1="80.1" y1="63.7" x2="91.2" y2="20.5"/>
		<line class="st0" x1="102.3" y1="63.7" x2="91.2" y2="20.5"/>
		<path class="st0" d="M102.3,63.7c0,2.4-5,4.3-11.1,4.3c-6.1,0-11.1-1.9-11.1-4.3c0-2.4,5-4.3,11.1-4.3
			C97.3,59.4,102.3,61.3,102.3,63.7z"/>
	</g>
	<line class="st0" x1="22.2" y1="41.7" x2="91.2" y2="20.5"/>
</g>
</svg>
